<svg width="33" height="34" viewBox="0 0 33 34" fill="none" xmlns="http://www.w3.org/2000/svg">
<path d="M31.8235 23.6242C29.8643 22.8309 27.8092 22.1858 25.7049 21.6923C25.3952 17.9273 23.8121 14.5385 21.3622 12.4987L26.2708 7.67935C26.3903 7.56208 26.4499 7.44487 26.4499 7.26903C26.4499 7.09318 26.3902 6.97591 26.2708 6.8587L24.5991 5.21734C24.3603 4.98286 24.002 4.98286 23.7632 5.21734L18.5707 10.3338C18.5286 10.177 18.509 10.0127 18.509 9.84838V8.85182C19.9419 8.03111 20.8972 6.50702 20.8972 4.80702C20.8972 4.78736 20.8959 4.76797 20.8957 4.74838C20.8959 4.72879 20.8972 4.7094 20.8972 4.68974C20.8973 2.11032 18.7479 0 16.1208 0C13.4937 0 11.3442 2.11032 11.3442 4.68968C11.3442 4.70933 11.3455 4.72872 11.3458 4.74831C11.3455 4.7679 11.3442 4.78729 11.3442 4.80695C11.3442 6.44831 12.2995 8.03111 13.7325 8.85175V9.84831C13.7325 10.4931 13.3146 11.138 12.6577 11.4311C9.29975 13.0796 6.95251 17.0431 6.59552 21.6113C4.39918 22.1288 2.3051 22.8333 0.358268 23.6829C0.179168 23.7415 0 23.9173 0 24.1518C0 24.3863 0.0597226 24.5621 0.238823 24.6794L2.62705 26.2621C2.80615 26.3794 2.98532 26.3794 3.16442 26.3208C4.33682 25.9371 5.4708 25.601 6.57604 25.3121C6.65525 28.6109 7.30191 31.5691 8.41852 33.707C8.53796 33.8829 8.71706 34.0001 8.95588 34.0001H11.9412C12.1203 34.0001 12.4188 33.8829 12.4786 33.707C12.5383 33.5312 12.598 33.2967 12.4786 33.1208C11.7621 31.7725 11.4038 29.838 11.3442 27.4345C14.4489 26.8483 17.8522 26.8483 20.8972 27.4345C20.8374 29.838 20.4792 31.7725 19.7628 33.1208C19.6433 33.2966 19.6433 33.5311 19.7628 33.707C19.8822 33.8829 20.121 34.0001 20.3001 34.0001H23.2854C23.5243 34.0001 23.7034 33.8829 23.7631 33.707C24.8821 31.5647 25.5292 28.5987 25.6062 25.2915C26.7307 25.5851 27.8842 25.928 29.0769 26.3208C29.1366 26.3795 29.1964 26.3795 29.256 26.3795C29.3755 26.3795 29.4948 26.3208 29.5546 26.2036L31.9428 24.6209C32.1219 24.5036 32.1816 24.3278 32.1816 24.0933C32.1817 23.9173 32.0026 23.6827 31.8235 23.6242ZM24.42 21.3966C21.9715 20.8957 19.4796 20.6096 17.0186 20.5367C15.7585 20.4933 14.503 20.5038 13.2612 20.5697L20.5391 13.4242C22.6885 15.1827 24.1214 18.1138 24.42 21.3966ZM14.5783 7.86177C14.575 7.85958 14.5717 7.85725 14.5685 7.85513C14.5024 7.82425 14.4381 7.79125 14.3747 7.75685C13.3827 7.20873 12.6789 6.21091 12.5572 5.0496C12.557 5.04707 12.5568 5.04455 12.5566 5.04203C12.5514 4.99196 12.5477 4.94155 12.5448 4.89095C12.544 4.87787 12.5433 4.86486 12.5427 4.85177C12.5402 4.79798 12.5385 4.744 12.5385 4.68961C12.5385 2.75513 14.1505 1.17234 16.1209 1.17234C18.0913 1.17234 19.7033 2.75513 19.6436 4.68961C19.6436 6.03786 18.8674 7.26889 17.6136 7.85513C17.558 7.88242 17.5096 7.91317 17.4669 7.94677C17.0508 8.11385 16.5965 8.20682 16.1209 8.20682C15.5693 8.20688 15.046 8.08277 14.5783 7.86177ZM13.1952 12.369C14.2699 11.8414 14.9267 10.8448 14.9267 9.73104V9.22987C15.3087 9.32736 15.7088 9.37928 16.1208 9.37928C16.5114 9.37928 16.8911 9.33161 17.2552 9.24368V9.73104C17.2552 10.2 17.4343 10.7276 17.6731 11.1379L7.88135 20.7518C8.41872 16.9414 10.4487 13.7172 13.1952 12.369ZM22.9273 32.8276H21.1958C21.7929 31.3034 22.0914 29.3103 22.0914 26.9655C22.0914 26.6724 21.9123 26.4379 21.6138 26.3793C18.1508 25.6172 14.1505 25.6172 10.6278 26.3793C10.3292 26.4379 10.1501 26.6724 10.1501 26.9655C10.1501 29.3103 10.4487 31.3034 11.0457 32.8276H9.31422C8.35893 30.8345 7.82156 28.1379 7.76184 25.0897C8.00066 25.031 8.17976 24.9724 8.41858 24.9138C13.613 23.8001 18.2701 23.8001 23.4048 24.8552C23.7631 24.9138 24.1213 25.031 24.4796 25.0897C24.42 28.1379 23.8826 30.8345 22.9273 32.8276ZM29.1965 25.1482C24.9636 23.7891 21.2056 23.0365 17.4989 22.8894C14.4148 22.7516 11.3771 23.0308 8.12017 23.7414C7.76191 23.8586 7.34398 23.9172 6.98578 24.0345C6.97611 24.0393 6.96671 24.0442 6.95724 24.0492C5.71098 24.3561 4.43124 24.7224 3.10483 25.1482L1.85099 24.3275C3.52384 23.6158 5.40493 23.0576 7.29982 22.6527C7.31456 22.6609 7.32924 22.6718 7.34398 22.6862C7.40371 22.6275 7.46343 22.6275 7.52308 22.6275C7.5356 22.6152 7.54818 22.6059 7.56076 22.5983C7.6079 22.5886 7.65504 22.5785 7.70225 22.569C7.8217 22.5103 7.94107 22.4517 8.0008 22.3931L18.8673 11.7828C18.9255 11.7257 18.9692 11.6616 18.9999 11.594L24.1812 6.50688L25.0171 7.3276L11.1653 20.9276C10.9862 21.1034 10.9265 21.3379 11.0458 21.5724C11.1653 21.8069 11.4041 21.9242 11.6429 21.9242C11.6508 21.9234 11.6586 21.9227 11.6664 21.9219C11.6785 21.9225 11.6905 21.9242 11.7027 21.9242C14.2904 21.6805 16.9623 21.6642 19.606 21.8997C21.1547 22.0438 22.6973 22.2721 24.2201 22.5823C24.4668 22.6342 24.7126 22.6881 24.9575 22.7449H24.9812C26.8254 23.1552 28.6371 23.6842 30.3907 24.3277L29.1965 25.1482Z" fill="#030305"/>
</svg>
